<mxfile host="app.diagrams.net" modified="2021-01-12T05:57:40.228Z" agent="5.0 (Windows NT 10.0; Win64; x64) AppleWebKit/537.36 (KHTML, like Gecko) Chrome/87.0.4280.88 Safari/537.36" etag="sXQNHkApmMk9i4Txvr8D" version="14.1.8" type="github">
  <diagram id="-wOluPUtj1LkfmbyNX9H" name="Page-1">
    <mxGraphModel dx="782" dy="437" grid="1" gridSize="10" guides="1" tooltips="1" connect="1" arrows="1" fold="1" page="1" pageScale="1" pageWidth="850" pageHeight="1100" math="0" shadow="0">
      <root>
        <mxCell id="0" />
        <mxCell id="1" parent="0" />
        <mxCell id="BFMK6bg6C42fE_FibJ0K-1" value="" style="rounded=1;whiteSpace=wrap;html=1;" vertex="1" parent="1">
          <mxGeometry x="170" y="110" width="120" height="160" as="geometry" />
        </mxCell>
        <mxCell id="BFMK6bg6C42fE_FibJ0K-2" value="" style="endArrow=none;dashed=1;html=1;" edge="1" parent="1">
          <mxGeometry width="50" height="50" relative="1" as="geometry">
            <mxPoint x="170" y="400" as="sourcePoint" />
            <mxPoint x="170" y="10" as="targetPoint" />
          </mxGeometry>
        </mxCell>
        <mxCell id="BFMK6bg6C42fE_FibJ0K-3" value="pod_ip:10000" style="text;html=1;strokeColor=#d6b656;fillColor=#fff2cc;align=center;verticalAlign=middle;whiteSpace=wrap;rounded=0;" vertex="1" parent="1">
          <mxGeometry x="140" y="190" width="80" height="20" as="geometry" />
        </mxCell>
        <mxCell id="BFMK6bg6C42fE_FibJ0K-4" value="" style="endArrow=classic;html=1;entryX=-0.144;entryY=0.533;entryDx=0;entryDy=0;entryPerimeter=0;" edge="1" parent="1">
          <mxGeometry width="50" height="50" relative="1" as="geometry">
            <mxPoint x="18" y="201" as="sourcePoint" />
            <mxPoint x="126.48000000000002" y="200.65999999999997" as="targetPoint" />
          </mxGeometry>
        </mxCell>
        <mxCell id="BFMK6bg6C42fE_FibJ0K-5" value="fortio request" style="edgeLabel;html=1;align=center;verticalAlign=middle;resizable=0;points=[];" vertex="1" connectable="0" parent="BFMK6bg6C42fE_FibJ0K-4">
          <mxGeometry x="-0.3775" y="-1" relative="1" as="geometry">
            <mxPoint x="25" y="-1.89" as="offset" />
          </mxGeometry>
        </mxCell>
        <mxCell id="BFMK6bg6C42fE_FibJ0K-6" value="127.0.0.1:random_port" style="text;html=1;strokeColor=#d6b656;fillColor=#fff2cc;align=center;verticalAlign=middle;whiteSpace=wrap;rounded=0;" vertex="1" parent="1">
          <mxGeometry x="240" y="190" width="140" height="20" as="geometry" />
        </mxCell>
        <mxCell id="BFMK6bg6C42fE_FibJ0K-7" value="" style="rounded=1;whiteSpace=wrap;html=1;" vertex="1" parent="1">
          <mxGeometry x="530" y="120" width="120" height="160" as="geometry" />
        </mxCell>
      </root>
    </mxGraphModel>
  </diagram>
</mxfile>
